<svg id="レイヤー_1" data-name="レイヤー 1" xmlns="http://www.w3.org/2000/svg" viewBox="0 0 113.4 113.4"><defs><style>.cls-1{fill:none;}.cls-2{fill:#ba67db;}</style></defs><title>tonoi</title><path class="cls-1" d="M212,205.54h113.4v113.4H212Zm81,68.59c.09,1.73.2,2.88.2,4,0,8.1,0,16.19,0,24.28,0,3.89,1.57,5.59,4.7,5.52,2.9-.06,4.34-1.78,4.36-5.56.06-8.59.12-17.19,0-25.77a60.77,60.77,0,0,0-1.18-8c.07-.89,1-1.65,1.8-2.5,3.69-3.77,7.5-7.45,11-11.41,2.5-2.83,2.34-5.31.15-7.07-2.37-1.9-4.89-1.4-7.09,1.61-6.46,8.82-14.57,15.87-23.59,21.88-4.73,3.15-9.71,5.91-14.59,8.82-1.61,1-3,2.37-1.82,4.07.67,1,2.59,1.2,4,1.62.39.11.95-.23,1.4-.44,3.5-1.69,7.05-3.3,10.47-5.12S289.26,276.32,293,274.13Zm-60-31.88c3.38,1.75,6.13,3.08,8.78,4.59,2.94,1.68,5.76,3.59,8.69,5.29,2,1.17,4.23.78,5.25-1.14a8.06,8.06,0,0,0,.29-5.22c-.25-1-1.63-2.08-2.74-2.57-5.82-2.57-11.66-5.11-17.62-7.32-2-.75-2.94-1.57-2.9-3.74.1-5.09.07-10.19,0-15.29,0-3-1.28-4.34-4.05-4.45s-4.48,1.58-4.49,4.48q-.06,27.42,0,54.84c0,3.2,1.44,4.45,4.4,4.39s4.13-1.29,4.14-4.57c0-8.29,0-16.58,0-24.87C232.78,245.49,232.89,244.32,233,242.25Zm47.66-.78c-.46-3.49-2.95-5.68-6.06-5-2.72.55-3.08,2.88-3.59,5a74.17,74.17,0,0,1-26.11,40.86c-1.86,1.5-4.1,2.58-5.77,4.24a4.45,4.45,0,0,0-1,3.79,2.69,2.69,0,0,0,4.15,1.5c.7-.37,1.47-.63,2.17-1,14.91-7.79,25-19.9,31.41-35.24C277.8,251,279.09,246.18,280.65,241.47Z" transform="translate(-211.95 -205.54)"/><path class="cls-2" d="M293,274.13c-3.72,2.19-6.9,4.19-10.2,5.95s-7,3.43-10.47,5.12c-.45.21-1,.55-1.4.44-1.4-.42-3.32-.63-4-1.62-1.14-1.7.21-3.11,1.82-4.07,4.88-2.91,9.86-5.67,14.59-8.82,9-6,17.13-13.06,23.59-21.88,2.2-3,4.72-3.51,7.09-1.61,2.19,1.76,2.35,4.24-.15,7.07-3.49,4-7.3,7.64-11,11.41-.82.85-1.73,1.61-1.8,2.5a60.77,60.77,0,0,1,1.18,8c.15,8.58.09,17.18,0,25.77,0,3.78-1.46,5.5-4.36,5.56-3.13.07-4.68-1.63-4.7-5.52-.07-8.09,0-16.18,0-24.28C293.18,277,293.07,275.86,293,274.13Z" transform="translate(-211.95 -205.54)"/><path class="cls-2" d="M233,242.25c-.1,2.07-.21,3.24-.21,4.42,0,8.29,0,16.58,0,24.87,0,3.28-1.17,4.52-4.14,4.57s-4.39-1.19-4.4-4.39q-.09-27.42,0-54.84c0-2.9,1.85-4.59,4.49-4.48s4,1.41,4.05,4.45c.06,5.1.09,10.2,0,15.29,0,2.17.86,3,2.9,3.74,6,2.21,11.8,4.75,17.62,7.32,1.11.49,2.49,1.54,2.74,2.57a8.06,8.06,0,0,1-.29,5.22c-1,1.92-3.22,2.31-5.25,1.14-2.93-1.7-5.75-3.61-8.69-5.29C239.12,245.33,236.37,244,233,242.25Z" transform="translate(-211.95 -205.54)"/><path class="cls-2" d="M280.65,241.47c-1.56,4.71-2.85,9.53-4.75,14.1-6.38,15.34-16.5,27.45-31.41,35.24-.7.37-1.47.63-2.17,1a2.69,2.69,0,0,1-4.15-1.5,4.45,4.45,0,0,1,1-3.79c1.67-1.66,3.91-2.74,5.77-4.24A74.17,74.17,0,0,0,271,241.42c.51-2.11.87-4.44,3.59-5C277.7,235.79,280.19,238,280.65,241.47Z" transform="translate(-211.95 -205.54)"/></svg>